<?xml version="1.0" encoding="UTF-8"?><svg id="Layer_1" xmlns="http://www.w3.org/2000/svg" xmlns:xlink="http://www.w3.org/1999/xlink" viewBox="0 0 512 512"><defs><style>.cls-1{fill:#fff;}.cls-2{opacity:0;}.cls-3{filter:url(#luminosity-noclip);}.cls-4{mask:url(#mask);}.cls-5{fill:url(#linear-gradient);}</style><linearGradient id="linear-gradient" x1="-34.23" y1="393.51" x2="672.08" y2="58.86" gradientUnits="userSpaceOnUse"><stop offset="0" stop-color="#227abf"/><stop offset=".12" stop-color="#3685c5"/><stop offset=".38" stop-color="#5c9ad1"/><stop offset=".63" stop-color="#77aada"/><stop offset=".84" stop-color="#88b3e0"/><stop offset="1" stop-color="#8eb7e2"/></linearGradient><filter id="luminosity-noclip" x="-2.47" y="2.12" width="517.37" height="507.75" color-interpolation-filters="sRGB" filterUnits="userSpaceOnUse"><feFlood flood-color="#fff" result="bg"/><feBlend in="SourceGraphic" in2="bg"/></filter><mask id="mask" x="-2.47" y="2.12" width="517.37" height="507.75" maskUnits="userSpaceOnUse"><g class="cls-3"><g id="_Flat_Front_Ring-2"><path d="m512.3,492.42l-155.15-211.05c11.81-20.27,11.71-30.81-.23-51.16L511.72,19.58c8.32-9.89-5.11-23.08-15.19-14.9l-213.8,152.42c-20.68-11.63-33.05-11.61-53.77.09L15.33,4.87C5.24-3.3-8.19,9.88.13,19.78l154.74,210.54c-11.91,20.34-11.81,31.33.25,51.77L.73,492.22c-8.33,9.9,5.09,23.08,15.18,14.92l213.39-152.13c20.65,11.58,33.02,11.46,53.78-.28l214.03,152.6c10.09,8.18,23.51-5.01,15.19-14.9Z"/></g></g></mask></defs><g id="Icon"><circle class="cls-5" cx="256" cy="256" r="256"/><g id="_Icon_Margins_"><g id="_Flat_Front_Ring"><path class="cls-1" d="m430.7,420.07l-90.93-116.36c8.04-14.07,12.63-30.36,12.63-47.72s-4.65-33.89-12.79-48.01l90.69-116.06c5.67-6.86-3.48-16.02-10.35-10.34l-116.11,90.72c-14.09-8.07-30.41-12.69-47.83-12.69s-33.82,4.63-47.93,12.75l-116-90.65c-6.87-5.67-16.02,3.48-10.35,10.35l90.65,116c-8.11,14.12-12.75,30.48-12.75,47.93s4.7,34.03,12.92,48.22l-90.42,115.71c-5.68,6.87,3.47,16.02,10.34,10.35l115.83-90.52c14.07,8.04,30.35,12.62,47.71,12.62s33.91-4.66,48.06-12.82l116.27,90.85c6.87,5.68,16.02-3.48,10.35-10.34Zm-174.68-96.1c-37.54,0-67.98-30.43-67.98-67.98s30.43-67.98,67.98-67.98,67.98,30.43,67.98,67.98-30.43,67.98-67.98,67.98Z"/><g class="cls-2"><path class="cls-1" d="m424.62,79.81c5.5,0,10.11,6.76,5.69,12.12l-90.69,116.06c8.13,14.13,12.79,30.52,12.79,48.01s-4.58,33.65-12.63,47.72l90.93,116.36c4.43,5.36-.18,12.12-5.69,12.12-1.54,0-3.16-.53-4.66-1.78l-116.27-90.85c-14.15,8.15-30.55,12.82-48.06,12.82s-33.64-4.58-47.71-12.62l-115.83,90.53c-1.5,1.24-3.12,1.77-4.66,1.77-5.51,0-10.12-6.76-5.68-12.12l90.42-115.71c-8.21-14.19-12.92-30.65-12.92-48.22s4.63-33.82,12.75-47.93l-90.65-116c-4.43-5.37.18-12.12,5.69-12.12,1.54,0,3.16.53,4.66,1.77l116,90.65c14.12-8.11,30.48-12.75,47.93-12.75s33.74,4.61,47.83,12.69l116.11-90.72c1.51-1.24,3.12-1.78,4.66-1.78m-168.6,244.17c37.54,0,67.98-30.43,67.98-67.98s-30.43-67.98-67.98-67.98-67.98,30.43-67.98,67.98,30.43,67.98,67.98,67.98M424.62,56.81h0c-6.93,0-13.49,2.35-19.01,6.79l-104.66,81.78c-14.2-5.76-29.48-8.76-44.93-8.76s-30.82,3.02-45.05,8.81L106.41,63.72c-5.44-4.37-12.16-6.77-18.98-6.78h0c-11.7,0-22.52,6.92-27.58,17.64-4.96,10.52-3.46,22.67,3.89,31.81l81.71,104.55c-5.79,14.23-8.81,29.55-8.81,45.05s3.06,31.05,8.95,45.38l-81.44,104.22c-7.36,9.14-8.86,21.29-3.91,31.81,5.05,10.72,15.87,17.65,27.58,17.65,6.92,0,13.48-2.34,18.99-6.78l104.41-81.6c14.16,5.72,29.39,8.71,44.79,8.71s30.92-3.04,45.2-8.87l104.8,81.89c5.44,4.38,12.17,6.78,18.99,6.78,11.7,0,22.53-6.93,27.58-17.65,4.95-10.52,3.45-22.66-3.9-31.8l-82-104.93c5.73-14.16,8.71-29.4,8.71-44.81s-3.03-30.89-8.84-45.14l81.74-104.6c7.35-9.14,8.86-21.28,3.9-31.8-5.05-10.72-15.87-17.65-27.58-17.65h0Zm-168.6,244.17c-24.8,0-44.98-20.18-44.98-44.98s20.18-44.98,44.98-44.98,44.98,20.18,44.98,44.98-20.18,44.98-44.98,44.98h0Z"/></g></g></g><g id="_Icon_Margins_-2"><g class="cls-4"><path id="_Shaded_Back_Ring" class="cls-1" d="m465.01,246.35l-48.72-6.03c-7.88-81.59-76.64-145.37-160.29-145.37s-152.16,63.55-160.24,144.93l-48.77,6.03c-12.46.95-12.46,19.21,0,20.16l48.77,6.03c8.08,81.38,76.74,144.93,160.24,144.93s151.93-63.33,160.2-144.5l48.81-6.04c12.46-.94,12.46-19.2,0-20.15Zm-209.01,141.89c-73.04,0-132.25-59.21-132.25-132.25s59.21-132.25,132.25-132.25,132.25,59.21,132.25,132.25-59.21,132.25-132.25,132.25Z"/></g></g></g></svg>